HIERARCHY
ROOT Hips
{
 OFFSET 0.000000 0.000000 0.000000
 CHANNELS 6 Xposition Yposition Zposition Yrotation Xrotation Zrotation
 JOINT Chest
 {
  OFFSET 0.000000 9.588913 -0.003946
  CHANNELS 3 Yrotation Xrotation Zrotation
  JOINT Chest2
  {
   OFFSET 0.000000 9.541882 0.008053
   CHANNELS 3 Yrotation Xrotation Zrotation
   JOINT Chest3
   {
    OFFSET 0.000000 9.501360 0.000000
    CHANNELS 3 Yrotation Xrotation Zrotation
    JOINT Chest4
    {
     OFFSET 0.000000 9.491660 0.000000
     CHANNELS 3 Yrotation Xrotation Zrotation
     JOINT Neck
     {
      OFFSET 0.000000 14.331917 0.000000
      CHANNELS 3 Yrotation Xrotation Zrotation
      JOINT Head
      {
       OFFSET 0.000000 8.884799 0.017034
       CHANNELS 3 Yrotation Xrotation Zrotation
       End Site
       {
        OFFSET 0.000000 16.896195 0.008993
       }
      }
     }
     JOINT RightCollar
     {
      OFFSET -2.923010 9.499495 0.000000
      CHANNELS 3 Yrotation Xrotation Zrotation
      JOINT RightShoulder
      {
       OFFSET -13.795216 0.000000 0.000000
       CHANNELS 3 Yrotation Xrotation Zrotation
       JOINT RightElbow
       {
        OFFSET -30.272209 0.000000 0.000000
        CHANNELS 3 Yrotation Xrotation Zrotation
        JOINT RightWrist
        {
         OFFSET -24.478199 0.000000 0.000000
         CHANNELS 3 Yrotation Xrotation Zrotation
         End Site
         {
          OFFSET -18.090752 0.000000 0.000000
         }
        }
       }
      }
     }
     JOINT LeftCollar
     {
      OFFSET 2.923010 9.499495 0.000000
      CHANNELS 3 Yrotation Xrotation Zrotation
      JOINT LeftShoulder
      {
       OFFSET 13.795216 0.000000 0.000000
       CHANNELS 3 Yrotation Xrotation Zrotation
       JOINT LeftElbow
       {
        OFFSET 30.272209 0.000000 0.000000
        CHANNELS 3 Yrotation Xrotation Zrotation
        JOINT LeftWrist
        {
         OFFSET 24.478199 0.000000 0.000000
         CHANNELS 3 Yrotation Xrotation Zrotation
         End Site
         {
          OFFSET 18.090752 0.000000 0.000000
         }
        }
       }
      }
     }
    }
   }
  }
 }
 JOINT RightHip
 {
  OFFSET -7.826875 0.019532 0.001973
  CHANNELS 3 Yrotation Xrotation Zrotation
  JOINT RightKnee
  {
   OFFSET 0.000000 -40.546152 -0.001885
   CHANNELS 3 Yrotation Xrotation Zrotation
   JOINT RightAnkle
   {
    OFFSET 0.000000 -39.417092 -0.003189
    CHANNELS 3 Yrotation Xrotation Zrotation
    JOINT RightToe
    {
     OFFSET 0.000000 -7.579396 17.243563
     CHANNELS 3 Yrotation Xrotation Zrotation
     End Site
     {
      OFFSET 0.000000 -1.500329 6.694466
     }
    }
   }
  }
 }
 JOINT LeftHip
 {
  OFFSET 7.826875 0.019532 0.001973
  CHANNELS 3 Yrotation Xrotation Zrotation
  JOINT LeftKnee
  {
   OFFSET 0.000000 -40.546152 -0.001885
   CHANNELS 3 Yrotation Xrotation Zrotation
   JOINT LeftAnkle
   {
    OFFSET 0.000000 -39.417092 -0.003189
    CHANNELS 3 Yrotation Xrotation Zrotation
    JOINT LeftToe
    {
     OFFSET 0.000000 -7.579396 17.243563
     CHANNELS 3 Yrotation Xrotation Zrotation
     End Site
     {
      OFFSET 0.000000 -1.500329 6.694466
     }
    }
   }
  }
 }
}
MOTION
Frames: 12
Frame Time: 0.008333
246.688804 82.810187 400.986727 178.894637 -17.481661 -3.159424 -1.116050 14.756198 2.406069 -0.635626 8.373035 1.501083 -0.761832 10.468638 1.866677 -0.635627 8.373034 1.501088 -0.650812 25.750380 -2.587214 -0.579623 12.036550 -4.476093 -10.517651 5.499923 -4.554482 -12.800843 10.864433 82.574328 22.723587 -17.437557 17.909924 20.768351 -4.921291 3.974214 -2.500261 0.155798 -2.370100 11.619166 -0.242079 -77.009816 -9.362926 -20.694359 -14.020198 -25.263956 -9.312343 5.279958 -9.972219 -34.373220 -2.371098 -32.564016 73.753575 -37.606648 -7.677430 -12.990798 7.647564 -0.175196 6.209546 -0.275197 6.696735 2.231869 4.228409 -0.747430 49.488418 8.335628 10.575039 -27.618489 -9.842571 -0.064048 -1.349410 -0.955017
246.769997 82.691397 400.616783 178.992597 -17.662251 -3.238588 -1.142747 14.823496 2.406127 -0.652717 8.440712 1.509788 -0.782794 10.553314 1.877148 -0.652717 8.440711 1.509792 -0.650616 25.733031 -2.589683 -0.578199 12.004386 -4.480604 -10.549486 5.676361 -4.643940 -12.926026 11.004584 82.600531 22.552226 -17.807172 17.860439 20.744559 -5.078413 3.884227 -2.409413 0.350309 -2.372947 11.754154 -0.214054 -77.077800 -9.333186 -20.556890 -13.929412 -24.785575 -9.110718 5.143530 -9.854846 -34.904001 -2.027309 -32.597276 73.041712 -37.607556 -7.908035 -13.351026 7.643038 -0.202848 6.343179 -0.406750 6.618097 2.502155 4.275109 -0.828158 49.864778 8.431881 10.790985 -27.828724 -9.913722 -0.015694 -2.257123 -1.387984
246.857903 82.568177 400.237800 179.096188 -17.831384 -3.331454 -1.181351 14.895596 2.419689 -0.666357 8.505493 1.521580 -0.799368 10.634360 1.891568 -0.666358 8.505493 1.521584 -0.655539 25.706599 -2.594470 -0.585125 11.955242 -4.488127 -10.570260 5.836464 -4.734744 -13.022116 11.166301 82.628685 22.395492 -18.142274 17.769600 20.673170 -5.220657 3.766381 -2.313068 0.543612 -2.363970 11.805707 -0.129351 -77.130355 -9.268721 -20.492822 -13.845192 -24.405155 -8.981303 5.166665 -9.769824 -35.389193 -1.701242 -32.449119 72.287252 -37.392241 -8.060103 -13.695593 7.724398 -0.269054 6.435433 -0.635227 6.502343 2.782152 4.333317 -0.882217 50.225505 8.543727 10.988107 -28.061061 -9.989232 0.060968 -3.042611 -1.774117
246.955050 82.439356 399.847817 179.202836 -18.003484 -3.445654 -1.214043 14.986503 2.454549 -0.678174 8.569772 1.538028 -0.813545 10.714780 1.911864 -0.678175 8.569771 1.538031 -0.666576 25.669737 -2.601761 -0.602091 11.886584 -4.498769 -10.587442 5.983892 -4.818583 -13.102095 11.327571 82.656107 22.245257 -18.426965 17.658398 20.572906 -5.322717 3.633728 -2.216095 0.732990 -2.344566 11.819278 -0.006823 -77.162300 -9.168953 -20.450757 -13.791067 -24.111723 -8.928934 5.322417 -9.712166 -35.815154 -1.375223 -32.110637 71.502477 -36.950194 -8.161627 -14.011062 7.860900 -0.351203 6.484734 -0.918354 6.384871 3.083010 4.410878 -0.864128 50.574183 8.726326 11.145412 -28.326964 -10.072768 0.131393 -3.721777 -2.126612
247.062603 82.303644 399.446633 179.307757 -18.182315 -3.584254 -1.226902 15.098955 2.517813 -0.687066 8.634378 1.559753 -0.823923 10.795605 1.938842 -0.687069 8.634376 1.559755 -0.685237 25.624818 -2.609227 -0.632394 11.802738 -4.508010 -10.620164 6.112710 -4.889282 -13.179987 11.477899 82.672119 22.089130 -18.637682 17.547333 20.477583 -5.372373 3.509538 -2.130516 0.920203 -2.315522 11.824913 0.139133 -77.169284 -9.041900 -20.409430 -13.780178 -23.877766 -8.933754 5.552003 -9.657671 -36.182876 -1.043515 -31.570727 70.706300 -36.261504 -8.245748 -14.284520 8.024065 -0.428889 6.492524 -1.219905 6.300413 3.408637 4.511951 -0.800163 50.905695 8.974859 11.292790 -28.631539 -10.167397 0.192306 -4.293462 -2.458285
247.179965 82.159816 399.035982 179.411186 -18.360578 -3.745825 -1.216315 15.224724 2.612187 -0.691539 8.700093 1.586541 -0.828629 10.877806 1.972274 -0.691545 8.700091 1.586543 -0.711718 25.574700 -2.614406 -0.677033 11.708960 -4.511377 -10.685011 6.212535 -4.945882 -13.266638 11.619631 82.670991 21.926759 -18.757777 17.447495 20.418077 -5.374423 3.413616 -2.062947 1.107638 -2.272979 11.832867 0.300289 -77.151775 -8.903265 -20.365739 -13.821540 -23.672462 -8.963920 5.803154 -9.576746 -36.506754 -0.719179 -30.826729 69.920733 -35.309613 -8.324920 -14.513125 8.188153 -0.489490 6.463090 -1.512051 6.257553 3.750755 4.630099 -0.762469 51.221037 9.248340 11.476704 -28.971542 -10.277116 0.261928 -4.765616 -2.777834
247.303977 82.006619 398.619836 179.500955 -18.519297 -3.913092 -1.174546 15.340213 2.727472 -0.692386 8.767215 1.617509 -0.828671 10.961759 2.011037 -0.692394 8.767214 1.617511 -0.746171 25.522658 -2.618281 -0.736163 11.611351 -4.510569 -10.780020 6.290171 -4.992471 -13.366657 11.751035 82.654685 21.763649 -18.795665 17.362658 20.409303 -5.347321 3.358148 -2.007742 1.310524 -2.212214 11.841869 0.466815 -77.121230 -8.773095 -20.320127 -13.915901 -23.472341 -8.987894 6.036803 -9.433257 -36.817154 -0.428504 -29.873106 69.155538 -34.080519 -8.403354 -14.694162 8.337179 -0.531769 6.403841 -1.781600 6.267447 4.080750 4.740289 -0.803893 51.537701 9.519740 11.726733 -29.331935 -10.402137 0.343804 -5.162932 -3.090627
247.429604 81.843447 398.202020 179.569137 -18.641301 -4.060080 -1.106176 15.427522 2.842727 -0.689371 8.832981 1.650649 -0.823812 11.044003 2.052620 -0.689381 8.832981 1.650649 -0.790201 25.474496 -2.623705 -0.812186 11.520690 -4.510288 -10.900556 6.364031 -5.036714 -13.472940 11.870817 82.631529 21.599825 -18.776003 17.297373 20.455166 -5.307978 3.343822 -1.962008 1.539234 -2.135173 11.841845 0.642381 -77.081811 -8.670366 -20.280399 -14.056996 -23.266374 -8.981036 6.224027 -9.213209 -37.144213 -0.195491 -28.715083 68.418059 -32.592032 -8.484679 -14.833312 8.463648 -0.547006 6.322096 -2.019426 6.325603 4.367553 4.804967 -0.906561 51.875905 9.800186 12.039142 -29.688762 -10.534159 0.419349 -5.508870 -3.401386
247.553622 81.670340 397.786168 179.620611 -18.709833 -4.174611 -1.025930 15.473316 2.945195 -0.679580 8.893647 1.683926 -0.810463 11.119842 2.094552 -0.679592 8.893649 1.683926 -0.844879 25.435503 -2.631751 -0.906928 11.446782 -4.512187 -11.049554 6.447746 -5.082351 -13.575074 11.987301 82.610645 21.436400 -18.721184 17.254511 20.546099 -5.269873 3.355306 -1.928271 1.789103 -2.046773 11.824884 0.842900 -77.021901 -8.606017 -20.247317 -14.244758 -23.066737 -8.932683 6.361121 -8.945477 -37.511680 -0.012829 -27.380458 67.704562 -30.901740 -8.574192 -14.936627 8.565654 -0.525819 6.224213 -2.218449 6.398478 4.582831 4.800747 -0.996880 52.246509 10.119217 12.381915 -30.025437 -10.654545 0.473882 -5.823686 -3.717690
247.676867 81.486397 397.379854 179.627899 -18.683999 -4.255528 -0.916400 15.436540 3.042886 -0.661221 8.949941 1.716105 -0.786402 11.190174 2.135330 -0.661233 8.949945 1.716105 -0.908742 25.403206 -2.644394 -1.017244 11.385120 -4.520138 -11.220695 6.538856 -5.126573 -13.670095 12.105571 82.589411 21.274879 -18.646385 17.230367 20.666193 -5.248228 3.372841 -1.902797 2.049333 -1.949220 11.799726 1.064222 -76.933247 -8.562971 -20.198676 -14.485554 -22.910106 -8.852758 6.464636 -8.654602 -37.962034 0.163175 -25.944786 66.997187 -29.113283 -8.636695 -15.037802 8.663175 -0.516372 6.137760 -2.401365 6.486101 4.682640 4.738690 -1.000430 52.646731 10.499536 12.687291 -30.359915 -10.762582 0.549752 -6.106968 -4.021336
247.801769 81.301444 396.958488 179.651911 -18.716871 -4.334411 -0.834458 15.468541 3.141068 -0.635182 9.008619 1.746039 -0.752746 11.263442 2.173493 -0.635195 9.008625 1.746039 -0.977395 25.368011 -2.664510 -1.134327 11.318054 -4.540303 -11.393052 6.620206 -5.162166 -13.756867 12.227124 82.558234 21.110500 -18.566025 17.223254 20.794708 -5.249287 3.382480 -1.869496 2.299509 -1.836387 11.795897 1.289062 -76.826207 -8.503994 -20.095106 -14.776031 -22.834466 -8.766657 6.550048 -8.402868 -38.337705 0.335181 -24.511663 66.302607 -27.355028 -8.702104 -15.083457 8.769395 -0.469526 5.987010 -2.550738 6.536830 4.838312 4.671808 -0.898289 53.060587 10.928228 12.923585 -30.683005 -10.862907 0.664997 -6.382069 -4.302912
247.912521 81.112120 396.530355 179.710277 -18.749320 -4.317607 -0.834310 15.500450 3.131726 -0.602314 9.074538 1.773938 -0.710532 11.345721 2.209289 -0.602327 9.074545 1.773937 -1.048254 25.322443 -2.690659 -1.253667 11.231750 -4.570686 -11.552117 6.682243 -5.178536 -13.837446 12.356285 82.507532 20.942380 -18.495363 17.234818 20.907284 -5.269085 3.373689 -1.821407 2.519252 -1.702848 11.833896 1.510963 -76.718030 -8.400707 -19.917004 -15.096214 -22.853061 -8.699551 6.629235 -8.160103 -38.704067 0.403480 -23.133273 65.614101 -25.698168 -8.772120 -15.151713 8.899159 -0.377025 5.837295 -2.665449 6.520672 5.037086 4.550299 -0.781855 53.413666 11.308589 12.771362 -31.072394 -10.647082 0.649910 -6.657371 -4.656068
